<?xml version="1.0" encoding="utf-8"?>
<!-- Generator: Adobe Illustrator 22.0.1, SVG Export Plug-In . SVG Version: 6.00 Build 0)  -->
<svg version="1.1" id="Layer_1" xmlns="http://www.w3.org/2000/svg" xmlns:xlink="http://www.w3.org/1999/xlink" x="0px" y="0px"
	 viewBox="0 0 36 36" style="enable-background:new 0 0 36 36;" xml:space="preserve">
<style type="text/css">
	.st0{fill:none;stroke:#FFFFFF;stroke-miterlimit:10;}
</style>
<path class="st0" d="M35,19c0-2.1-0.4-4-1-5.9c-0.5,5.4-3.3,8.2-6.3,6.9c-2.8-1.2-0.9-5.9-0.8-8.2c0.2-3.8,0-8.2-6.9-11.8
	c2.9,5.5,0.3,8.9-2.3,9.1c-3,0.2-5.7-2.5-4.7-7c-3.2,2.4-3.3,6.4-2.3,9c1,2.7,0,5-2.6,5.2c-2.8,0.3-4.4-3-3-8.3c-2.5,3-4,6.8-4,11
	c0,9.4,7.6,17,17,17S35,28.4,35,19z"/>
<path class="st0" d="M28.4,24c0.1,3.1-2.6,4.3-4,3.7c-2.1-0.8-1.5-2.3-2.1-5.3s-2.6-5.1-5.7-6c2.2,6.3-1.2,8.7-3.1,9.1
	c-1.9,0.4-3.8,0-4-4C7.4,23.7,6,26.7,6,30c0,0.4,0,0.7,0.1,1.1c3.1,3,7.3,4.9,11.9,4.9s8.9-1.9,11.9-4.9c0-0.4,0.1-0.7,0.1-1.1
	C30,27.8,29.4,25.8,28.4,24z"/>
</svg>
