<?xml version="1.0" encoding="utf-8"?>
<!-- Generator: Adobe Illustrator 22.0.1, SVG Export Plug-In . SVG Version: 6.00 Build 0)  -->
<svg version="1.1" id="Layer_1" xmlns="http://www.w3.org/2000/svg" xmlns:xlink="http://www.w3.org/1999/xlink" x="0px" y="0px"
	 viewBox="0 0 36 36" style="enable-background:new 0 0 36 36;" xml:space="preserve">
<style type="text/css">
	.st0{fill:none;stroke:#FFFFFF;stroke-miterlimit:10;}
</style>
<path class="st0" d="M31.6,22.9c2-2.8,3.5-5.8,4-8.8c0.2-0.7,0.3-1.5,0.3-2.2C35.9,6.4,31.5,2,26,2c-3.3,0-6.2,1.6-8,4.1
	C16.2,3.6,13.3,2,10,2c-5.4,0-9.9,4.4-9.9,9.9c0,0.8,0.1,1.5,0.3,2.2C1.8,22.6,11.2,31.6,18,34c2.6-0.9,5.6-2.8,8.4-5.3"/>
<path class="st0" d="M34.3,23.9l-3.8-1.4l-1.4-3.8C29,18.3,28.6,18,28.2,18s-0.8,0.3-0.9,0.7l-1.4,3.8L22,23.9
	c-0.4,0.1-0.7,0.5-0.7,0.9c0,0.4,0.3,0.8,0.7,0.9l3.8,1.4l1.4,3.8c0.1,0.4,0.5,0.7,0.9,0.7s0.8-0.3,0.9-0.7l1.4-3.8l3.8-1.4
	c0.4-0.1,0.7-0.5,0.7-0.9S34.7,24,34.3,23.9z M11.3,7.9L9,7L8.1,4.7C8,4.3,7.6,4,7.2,4C6.8,4,6.4,4.3,6.2,4.7L5.4,7L3,7.9
	C2.6,8,2.3,8.4,2.3,8.8c0,0.4,0.3,0.8,0.7,0.9l2.4,0.9L6.2,13c0.1,0.4,0.5,0.7,0.9,0.7S8,13.4,8.1,13L9,10.6l2.4-0.9
	C11.7,9.6,12,9.2,12,8.8C12,8.4,11.7,8,11.3,7.9z"/>
</svg>
