<?xml version="1.0" encoding="utf-8"?>
<!-- Generator: Adobe Illustrator 22.0.1, SVG Export Plug-In . SVG Version: 6.00 Build 0)  -->
<svg version="1.1" id="Layer_1" xmlns="http://www.w3.org/2000/svg" xmlns:xlink="http://www.w3.org/1999/xlink" x="0px" y="0px"
	 viewBox="0 0 36 36" style="enable-background:new 0 0 36 36;" xml:space="preserve">
<style type="text/css">
	.st0{fill:none;stroke:#FFFFFF;stroke-miterlimit:10;}
</style>
<path class="st0" d="M16,2c0,0,0-2,2-2s2,2,2,2v2c0,0,0,2-2,2s-2-2-2-2V2z M34,16c0,0,2,0,2,2s-2,2-2,2h-2c0,0-2,0-2-2s2-2,2-2H34z
	 M4,16c0,0,2,0,2,2s-2,2-2,2H2c0,0-2,0-2-2s2-2,2-2H4z M9.1,7.3c0,0,1.4,1.4,0,2.8s-2.8,0-2.8,0L4.9,8.7c0,0-1.4-1.4,0-2.8
	c1.4-1.4,2.8,0,2.8,0L9.1,7.3z M30.1,28.3c0,0,1.4,1.4,0,2.8c-1.4,1.4-2.8,0-2.8,0l-1.4-1.4c0,0-1.4-1.4,0-2.8s2.8,0,2.8,0
	S30.1,28.3,30.1,28.3z M29.7,10.1c0,0-1.4,1.4-2.8,0s0-2.8,0-2.8l1.4-1.4c0,0,1.4-1.4,2.8,0s0,2.8,0,2.8S29.7,10.1,29.7,10.1z
	 M8.7,31.1c0,0-1.4,1.4-2.8,0s0-2.8,0-2.8l1.4-1.4c0,0,1.4-1.4,2.8,0s0,2.8,0,2.8S8.7,31.1,8.7,31.1z M16,32c0,0,0-2,2-2s2,2,2,2v2
	c0,0,0,2-2,2s-2-2-2-2V32z"/>
<circle class="st0" cx="18" cy="18" r="10"/>
</svg>
