<svg xmlns="http://www.w3.org/2000/svg" xml:space="preserve" viewBox="0 0 96 96"><defs><clipPath clipPathUnits="userSpaceOnUse" id="a"><path d="M0 72h72V0H0Z"/></clipPath></defs><g clip-path="url(#a)" transform="matrix(1.33333 0 0 -1.33333 0 96)"><path d="M0 0h48.806c2.447 2.918 4.642 6.024 6.439 9.222H-6.438C-4.641 6.024-2.447 2.918 0 0" style="fill:#52ba9a;fill-opacity:1;fill-rule:nonzero;stroke:none" transform="translate(11.596 22.168)"/><path d="M0 0h30.286a73.966 73.966 0 0 1 9.259 9.222H-9.261A74.048 74.048 0 0 1 0 0" style="fill:#71c9f8;fill-opacity:1;fill-rule:nonzero;stroke:none" transform="translate(20.857 12.946)"/><path d="M0 0c4.702 1.71 10.045 4.976 15.143 9.222h-30.286C-10.046 4.976-4.703 1.71 0 0" style="fill:#97e3ff;fill-opacity:1;fill-rule:nonzero;stroke:none" transform="translate(36 3.725)"/><path d="M0 0a19.724 19.724 0 0 1-3.038-9.222h71.857A19.725 19.725 0 0 1 65.78 0Z" style="fill:#ff8d57;fill-opacity:1;fill-rule:nonzero;stroke:none" transform="translate(3.11 59.054)"/><path d="M0 0h61.683c1.698 3.021 3.042 6.121 3.898 9.221h-69.48C-3.042 6.121-1.698 3.021 0 0" style="fill:#ffe76e;fill-opacity:1;fill-rule:nonzero;stroke:none" transform="translate(5.158 31.39)"/><path d="M0 0c-6.658 0-12.533-3.287-16.139-8.311C-19.743-3.287-25.62 0-32.276 0c-7.051 0-13.228-3.684-16.753-9.221h65.78C13.227-3.684 7.05 0 0 0" style="fill:#e0245e;fill-opacity:1;fill-rule:nonzero;stroke:none" transform="translate(52.139 68.275)"/><path d="M0 0c0-1.554.197-3.06.535-4.51.176-1.095.421-2.193.724-3.292h69.479c.303 1.098.547 2.197.723 3.291C71.804-3.06 72-1.554 72 0c0 .479-.038.949-.071 1.419H.072C.038.949 0 .479 0 0" style="fill:#ffd03f;fill-opacity:1;fill-rule:nonzero;stroke:none" transform="translate(0 48.413)"/><path d="m0 0-7.698 2.851-2.851 7.697a2.009 2.009 0 0 1-3.773 0l-2.851-7.697L-24.87 0a2.012 2.012 0 0 1 0-3.774l7.697-2.85 2.851-7.698a2.012 2.012 0 0 1 3.773 0l2.851 7.698L0-3.774A2.01 2.01 0 0 1 0 0" style="fill:#ffb8c2;fill-opacity:1;fill-rule:nonzero;stroke:none" transform="translate(68.904 24.137)"/><path d="M0 0a1.767 1.767 0 0 1-1.652-1.151l-2.891-7.806-7.805-2.891A1.768 1.768 0 0 1-13.5-13.5c0-.735.463-1.399 1.151-1.653l7.806-2.89 2.891-7.806A1.768 1.768 0 0 1 0-27c.735 0 1.399.462 1.652 1.15l2.891 7.807 7.806 2.89A1.768 1.768 0 0 1 13.5-13.5c0 .734-.463 1.398-1.15 1.652h-.001L4.543-8.957 1.652-1.152A1.766 1.766 0 0 1 0 0m0-27.5c-.943 0-1.796.594-2.121 1.479l-2.811 7.589-7.589 2.81A2.269 2.269 0 0 0-14-13.5c0 .943.595 1.796 1.479 2.121l7.589 2.811 2.811 7.589A2.267 2.267 0 0 0 0 .5C.944.5 1.797-.095 2.121-.979l2.811-7.589 7.589-2.811A2.267 2.267 0 0 0 14-13.5c0-.943-.594-1.797-1.479-2.122l-7.589-2.81-2.811-7.59A2.266 2.266 0 0 0 0-27.5" style="fill:#fff;fill-opacity:1;fill-rule:nonzero;stroke:none" transform="translate(56.469 35.75)"/><path d="m0 0-4.76 1.762-1.762 4.76a2.014 2.014 0 0 1-3.776 0l-1.763-4.76L-16.82 0a2.012 2.012 0 0 1 0-3.776l4.759-1.763 1.763-4.759a2.013 2.013 0 0 1 3.776 0l1.762 4.759L0-3.776A2.012 2.012 0 0 1 0 0" style="fill:#97e3ff;fill-opacity:1;fill-rule:nonzero;stroke:none" transform="translate(22.608 56.344)"/><path d="M0 0a1.771 1.771 0 0 1-1.654-1.151l-1.802-4.867-4.867-1.802a1.771 1.771 0 0 1-1.151-1.654 1.77 1.77 0 0 1 1.151-1.654l4.867-1.802 1.802-4.867A1.772 1.772 0 0 1 0-18.949c.734 0 1.398.463 1.654 1.152l1.802 4.867 4.867 1.802c.689.255 1.152.92 1.152 1.654 0 .734-.463 1.398-1.152 1.654L3.456-6.018 1.654-1.151A1.771 1.771 0 0 1 0 0m0-19.449c-.942 0-1.795.594-2.123 1.478l-1.722 4.652-4.652 1.722a2.273 2.273 0 0 0-1.477 2.123c0 .942.594 1.795 1.477 2.122l4.652 1.723 1.722 4.652A2.275 2.275 0 0 0 0 .5C.942.5 1.795-.094 2.123-.977l1.722-4.652 4.652-1.723a2.272 2.272 0 0 0 1.478-2.122c0-.942-.594-1.795-1.478-2.123l-4.652-1.722-1.722-4.652A2.274 2.274 0 0 0 0-19.449" style="fill:#fff;fill-opacity:1;fill-rule:nonzero;stroke:none" transform="translate(14.198 63.93)"/></g></svg>