<?xml version="1.0" encoding="utf-8"?>
<!-- Generator: Adobe Illustrator 21.1.0, SVG Export Plug-In . SVG Version: 6.00 Build 0)  -->
<svg version="1.1" xmlns="http://www.w3.org/2000/svg" xmlns:xlink="http://www.w3.org/1999/xlink" x="0px" y="0px"
	 viewBox="0 0 402.3 200" style="enable-background:new 0 0 402.3 200;" xml:space="preserve">
<style type="text/css">
	.st0{display:none;}
	.st1{fill:none;stroke:#005FD1;stroke-width:3;stroke-miterlimit:10;}
	.st2{fill:none;stroke:#1DA1F2;stroke-width:3;stroke-miterlimit:10;}
	.st3{fill:none;stroke:#FBAD1B;stroke-width:3;stroke-miterlimit:10;}
	.st4{fill:none;stroke:#71C9F8;stroke-width:3;stroke-miterlimit:10;}
	.st5{fill:none;stroke:#199855;stroke-width:3;stroke-miterlimit:10;}
	.st6{fill:none;stroke:#000000;stroke-width:3;stroke-miterlimit:10;}
	.st7{fill:none;stroke:#97E3FF;stroke-width:3;stroke-miterlimit:10;}
	.st8{fill:none;stroke:#70C5DC;stroke-width:3;stroke-miterlimit:10;}
	.st9{fill:none;stroke:#DF235F;stroke-miterlimit:10;}
	.st10{fill:#1A5CA7;}
	.st11{fill:#1DA1F2;}
	.st12{fill:#97E3FF;}
	.st13{fill:#71C9F8;}
	.st14{fill:#005FD1;}
	.st15{font-family:'HelveticaNeue-Bold';}
	.st16{font-size:11.5px;}
</style>
<g id="guides" class="st0">
</g>
<g id="lines">
	<polyline class="st1" points="382.2,205.4 332.2,176.5 332.2,147.6 	"/>
	<polyline class="st1" points="357.2,104.3 357.2,133.2 407.2,162.1 	"/>
	<line class="st2" x1="307.2" y1="104.3" x2="257.2" y2="133.2"/>
	<line class="st1" x1="332.2" y1="205.4" x2="282.2" y2="176.5"/>
	<polyline class="st4" points="157.2,46.6 157.2,75.5 82.2,118.8 32.2,147.6 57.2,162.1 	"/>
	<polyline class="st2" points="82.2,176.5 82.2,147.6 182.2,89.9 182.2,147.6 	"/>
	<polyline class="st1" points="207.2,190.9 182.2,205.4 132.2,176.5 106.3,190.9 80.9,205.4 	"/>
	<polyline class="st1" points="32.2,205.4 157.2,133.2 157.2,162.1 232.2,205.4 	"/>
	<line class="st2" x1="307.2" y1="133.2" x2="307.2" y2="104.3"/>
	<polyline class="st2" points="257.2,162.1 207.2,133.2 207.2,75.5 182.2,89.9 	"/>
	<polyline class="st7" points="32.2,61 82.2,89.9 107.2,75.5 157.2,46.6 132.2,32.2 	"/>
	<line class="st4" x1="57.2" y1="104.3" x2="82.2" y2="118.8"/>
	<polyline class="st4" points="207.2,133.2 257.2,104.3 232.2,89.9 232.2,32.2 	"/>
	<polyline class="st1" points="407.2,162.1 382.2,176.5 332.2,147.6 257.2,190.9 	"/>
	<line class="st4" x1="282.2" y1="32.2" x2="307.2" y2="46.6"/>
	<polyline class="st7" points="232.2,32.2 182.2,61 182.2,32.2 157.2,17.7 107.2,46.6 82.2,32.2 	"/>
	<line class="st1" x1="257.2" y1="162.1" x2="257.2" y2="190.9"/>
	<line class="st1" x1="257.2" y1="190.9" x2="282.2" y2="205.4"/>
	<line class="st2" x1="257.2" y1="75.5" x2="307.2" y2="104.3"/>
	<line class="st4" x1="407.2" y1="46.6" x2="357.2" y2="17.7"/>
	<polyline class="st2" points="307.2,75.5 332.2,89.9 357.2,104.3 	"/>
	<line class="st4" x1="332.2" y1="32.2" x2="332.2" y2="89.9"/>
	<polyline class="st2" points="407.2,75.5 382.2,61 357.2,75.5 357.2,46.6 	"/>
	<polyline class="st1" points="382.2,61 382.2,118.8 407.2,133.2 	"/>
	<line class="st1" x1="257.2" y1="162.1" x2="357.2" y2="104.3"/>
	<line class="st4" x1="183.5" y1="61" x2="208.5" y2="75.5"/>
	<line class="st2" x1="57.2" y1="162.1" x2="57.2" y2="191.4"/>
	<polyline class="st4" points="332.2,32.2 357.2,46.6 382.2,32.2 	"/>
	<polyline class="st4" points="332.8,32.2 282.8,61 232.8,32.2 	"/>
	<line class="st1" x1="182.2" y1="147.6" x2="257.2" y2="190.9"/>
	<polyline class="st2" points="32.2,205.4 32.2,176.5 7.2,162.1 	"/>
</g>
<g id="circles">
	<circle class="st11" cx="32.2" cy="176.5" r="3.3"/>
	<circle class="st12" cx="132.2" cy="32.2" r="3.3"/>
	<circle class="st12" cx="107.2" cy="46.6" r="3.3"/>
	<circle class="st12" cx="82.2" cy="32.2" r="3.3"/>
	<circle class="st13" cx="232.2" cy="32.2" r="3.3"/>
	<circle class="st12" cx="182.2" cy="61" r="3.3"/>
	<circle class="st11" cx="182.2" cy="89.9" r="3.3"/>
	<circle class="st12" cx="157.2" cy="46.6" r="3.3"/>
	<circle class="st11" cx="207.2" cy="75.5" r="3.3"/>
	<circle class="st13" cx="82.2" cy="118.8" r="3.3"/>
	<circle class="st12" cx="32.2" cy="61" r="3.3"/>
	<circle class="st13" cx="57.2" cy="104.3" r="3.3"/>
	<circle class="st14" cx="82.2" cy="176.5" r="3.3"/>
	<circle class="st14" cx="57.2" cy="190.9" r="3.3"/>
	<circle class="st14" cx="207.2" cy="191.4" r="3.3"/>
	<circle class="st11" cx="257.2" cy="133.2" r="3.3"/>
	<circle class="st11" cx="257.2" cy="75.5" r="3.3"/>
	<circle class="st13" cx="282.2" cy="32.2" r="3.3"/>
	<circle class="st11" cx="307.2" cy="104.3" r="3.3"/>
	<circle class="st13" cx="307.2" cy="46.6" r="3.3"/>
	<circle class="st14" cx="257.2" cy="190.9" r="3.3"/>
	<circle class="st11" cx="207.2" cy="133.2" r="3.3"/>
	<circle class="st14" cx="257.2" cy="162.1" r="3.3"/>
	<circle class="st14" cx="282.2" cy="176.5" r="3.3"/>
	<circle class="st14" cx="307.2" cy="133.2" r="3.3"/>
	<circle class="st13" cx="32.2" cy="147.6" r="3.3"/>
	<circle class="st11" cx="82.2" cy="147.6" r="3.3"/>
	<circle class="st14" cx="132.2" cy="176.5" r="3.3"/>
	<circle class="st13" cx="232.2" cy="89.9" r="3.3"/>
	<circle class="st13" cx="157.2" cy="75.5" r="3.3"/>
	<circle class="st14" cx="182.2" cy="147.6" r="3.3"/>
	<circle class="st14" cx="157.2" cy="133.2" r="3.3"/>
	<circle class="st14" cx="157.2" cy="162.1" r="3.3"/>
	<circle class="st13" cx="257.2" cy="104.3" r="3.3"/>
	<circle class="st13" cx="282.2" cy="61" r="3.3"/>
	<circle class="st12" cx="182.2" cy="32.2" r="3.3"/>
	<circle class="st12" cx="157.2" cy="17.7" r="3.3"/>
	<circle class="st12" cx="82.2" cy="89.9" r="3.3"/>
	<circle class="st11" cx="57.2" cy="162.1" r="3.3"/>
	<circle class="st14" cx="332.2" cy="147.6" r="3.3"/>
	<circle class="st14" cx="332.2" cy="177" r="3.3"/>
	<circle class="st14" cx="357.2" cy="104.3" r="3.3"/>
	<circle class="st11" cx="307.2" cy="75.5" r="3.3"/>
	<circle class="st14" cx="357.2" cy="133.2" r="3.3"/>
	<circle class="st11" cx="332.2" cy="89.9" r="3.3"/>
	<circle class="st13" cx="332.2" cy="32.2" r="3.3"/>
	<circle class="st13" cx="357.2" cy="17.7" r="3.3"/>
	<circle class="st13" cx="357.2" cy="46.6" r="3.3"/>
	<circle class="st13" cx="382.2" cy="32.2" r="3.3"/>
	<circle class="st11" cx="357.2" cy="75.5" r="3.3"/>
	<circle class="st11" cx="382.2" cy="61" r="3.3"/>
	<circle class="st14" cx="382.2" cy="118.8" r="3.3"/>
	<circle class="st14" cx="382.2" cy="176.5" r="3.3"/>
	<circle class="st11" cx="7.2" cy="162.1" r="3.3"/>
</g>
<g id="text">
	<text transform="matrix(0.75 -0.433 0 1 90.5106 161.479)" class="st14 st15 st16">{$members} public members</text>
	<text transform="matrix(0.75 -0.433 0 1 82.1912 108.8037)" class="st11 st15 st16">{$Repos} public repos</text>
</g>
</svg>
